<?xml version="1.0" standalone="no"?>
<!DOCTYPE svg PUBLIC "-//W3C//DTD SVG 20010904//EN"
 "http://www.w3.org/TR/2001/REC-SVG-20010904/DTD/svg10.dtd">
<svg version="1.0" xmlns="http://www.w3.org/2000/svg"
 width="499.000000pt" height="361.000000pt" viewBox="0 0 499.000000 361.000000"
 preserveAspectRatio="xMidYMid meet">

<g transform="translate(0.000000,361.000000) scale(0.100000,-0.100000)"
fill="#000000" stroke="none">
<path d="M542 3589 c-187 -22 -365 -146 -454 -314 -72 -138 -68 -49 -68 -1477
0 -1119 2 -1291 15 -1342 53 -203 226 -375 436 -433 60 -17 183 -18 2029 -18
2189 0 2009 -6 2159 68 90 43 215 168 258 258 72 147 68 50 68 1479 l0 1285
-27 81 c-65 190 -207 330 -403 396 l-70 23 -1935 1 c-1064 1 -1968 -2 -2008
-7z m4029 -211 c93 -46 158 -112 202 -206 l32 -67 0 -1305 0 -1305 -32 -67
c-44 -94 -109 -160 -202 -206 l-75 -37 -1995 0 -1996 0 -67 32 c-94 44 -160
109 -206 202 l-37 75 0 1305 0 1306 32 67 c53 113 138 188 258 230 47 16 172
17 2031 15 l1980 -2 75 -37z"/>
<path d="M1515 2871 c-86 -14 -137 -32 -216 -72 -201 -104 -338 -312 -355
-540 -17 -224 93 -459 276 -588 l70 -48 -66 -33 c-284 -140 -484 -449 -484
-750 0 -56 4 -74 20 -90 27 -27 64 -34 96 -18 38 18 54 52 54 117 0 77 25 173
70 266 70 144 172 245 325 320 202 100 408 99 613 -1 222 -108 368 -323 391
-575 9 -96 22 -122 68 -134 34 -8 77 10 93 40 27 51 -1 245 -54 377 -76 186
-240 362 -422 448 l-66 32 54 36 c121 81 217 210 265 357 33 101 37 262 9 365
-51 185 -180 343 -347 423 -52 25 -114 50 -139 55 -65 16 -197 22 -255 13z
m235 -188 c301 -82 447 -443 290 -718 -134 -235 -442 -317 -679 -183 -171 98
-273 309 -242 500 50 302 333 483 631 401z"/>
<path d="M2805 2628 c-51 -29 -61 -93 -20 -133 l24 -25 651 0 651 0 24 25 c42
41 31 105 -22 133 -31 17 -1279 16 -1308 0z"/>
<path d="M2781 1924 c-31 -40 -28 -87 10 -118 l31 -26 638 0 638 0 31 26 c38
31 41 78 10 118 l-20 26 -659 0 -659 0 -20 -26z"/>
<path d="M2781 1274 c-29 -37 -27 -85 5 -115 l26 -24 648 0 648 0 26 24 c32
30 34 78 5 115 l-20 26 -659 0 -659 0 -20 -26z"/>
</g>
</svg>
